<svg id="splitsvg" version="1.1" xmlns="http://www.w3.org/2000/svg" xmlns:xlink="http://www.w3.org/1999/xlink" width="1380" height="219"><g id="svgg"><path id="path0" d="M0.000 43.116 L 0.000 86.231 1.769 86.231 L 3.537 86.231 5.170 84.594 C 6.067 83.693,6.802 82.804,6.802 82.619 C 6.802 82.434,6.901 82.282,7.021 82.282 C 7.142 82.282,7.241 82.084,7.241 81.843 C 7.241 81.602,7.340 81.404,7.460 81.404 C 7.581 81.404,7.680 81.302,7.680 81.177 C 7.680 81.052,7.902 80.705,8.173 80.405 C 9.681 78.743,10.149 78.332,10.539 78.332 C 10.777 78.332,10.971 78.236,10.971 78.119 C 10.971 78.001,11.415 77.461,11.958 76.918 C 12.501 76.375,12.946 75.829,12.946 75.705 C 12.946 75.581,13.043 75.480,13.161 75.480 C 13.279 75.480,13.443 75.208,13.525 74.877 C 13.607 74.545,13.856 74.113,14.078 73.918 C 14.300 73.723,14.482 73.494,14.482 73.409 C 14.482 73.145,15.093 72.628,15.405 72.628 C 15.568 72.628,15.844 72.430,16.018 72.189 C 16.192 71.947,16.418 71.750,16.521 71.750 C 16.623 71.750,16.845 71.626,17.013 71.476 C 17.773 70.794,17.995 70.653,18.308 70.653 C 18.492 70.653,18.710 70.381,18.793 70.049 C 18.876 69.717,19.223 69.184,19.565 68.864 C 19.907 68.544,20.187 68.219,20.187 68.141 C 20.187 68.063,20.409 67.759,20.680 67.464 C 20.952 67.169,21.400 66.680,21.675 66.377 C 21.951 66.073,22.371 65.826,22.608 65.826 C 22.845 65.826,23.039 65.727,23.039 65.606 C 23.039 65.485,23.187 65.387,23.368 65.387 C 23.549 65.387,23.697 65.288,23.697 65.167 C 23.697 65.047,23.873 64.948,24.088 64.948 C 24.302 64.948,24.620 64.750,24.794 64.509 C 24.968 64.268,25.236 64.070,25.390 64.070 C 25.543 64.070,26.653 63.083,27.855 61.876 C 29.058 60.669,30.172 59.682,30.332 59.682 C 30.491 59.682,30.764 59.484,30.938 59.243 C 31.112 59.002,31.377 58.804,31.528 58.804 C 31.678 58.804,32.147 58.459,32.569 58.036 C 32.991 57.614,33.393 57.268,33.462 57.268 C 33.691 57.268,35.730 55.320,36.643 54.230 C 36.945 53.869,37.455 53.521,37.777 53.455 C 38.106 53.389,38.425 53.141,38.505 52.889 C 38.584 52.642,38.837 52.441,39.071 52.441 C 39.305 52.441,39.495 52.342,39.495 52.222 C 39.495 52.101,39.693 52.002,39.934 52.002 C 40.176 52.002,40.373 51.903,40.373 51.783 C 40.373 51.662,40.521 51.563,40.702 51.563 C 40.883 51.563,41.031 51.465,41.031 51.344 C 41.031 51.223,41.222 51.125,41.454 51.125 C 41.687 51.125,42.026 50.976,42.207 50.795 C 42.388 50.614,42.691 50.466,42.881 50.466 C 43.070 50.466,43.225 50.371,43.225 50.254 C 43.225 50.138,43.571 49.696,43.993 49.274 C 44.416 48.852,44.761 48.449,44.761 48.379 C 44.761 48.309,45.008 48.005,45.310 47.704 C 45.612 47.402,45.858 47.061,45.858 46.946 C 45.858 46.830,46.014 46.736,46.203 46.736 C 46.393 46.736,46.696 46.588,46.877 46.407 C 47.058 46.226,47.397 46.078,47.629 46.078 C 47.862 46.078,48.053 45.979,48.053 45.858 C 48.053 45.738,48.201 45.639,48.382 45.639 C 48.563 45.639,48.711 45.540,48.711 45.420 C 48.711 45.299,48.908 45.200,49.150 45.200 C 49.391 45.200,49.589 45.101,49.589 44.981 C 49.589 44.860,49.786 44.761,50.027 44.761 C 50.269 44.761,50.466 44.663,50.466 44.542 C 50.466 44.421,50.569 44.323,50.695 44.323 C 51.028 44.323,51.612 43.795,53.911 41.420 C 54.724 40.579,55.038 40.373,55.504 40.373 C 55.750 40.373,55.952 40.274,55.952 40.154 C 55.952 40.033,56.149 39.934,56.391 39.934 C 56.632 39.934,56.829 39.835,56.829 39.715 C 56.829 39.594,57.126 39.495,57.488 39.495 C 57.850 39.495,58.146 39.397,58.146 39.276 C 58.146 39.155,58.294 39.057,58.475 39.057 C 58.656 39.057,58.804 38.971,58.804 38.866 C 58.804 38.761,59.222 38.619,59.732 38.551 C 60.242 38.483,60.695 38.321,60.738 38.193 C 60.780 38.065,61.005 37.959,61.236 37.959 C 61.467 37.959,61.657 37.861,61.657 37.740 C 61.657 37.619,61.807 37.521,61.990 37.521 C 62.174 37.521,63.057 36.780,63.953 35.875 C 64.850 34.970,65.645 34.229,65.720 34.229 C 65.795 34.229,66.005 34.081,66.186 33.900 C 66.367 33.719,66.706 33.571,66.938 33.571 C 67.171 33.571,67.361 33.472,67.361 33.352 C 67.361 33.231,67.608 33.132,67.910 33.132 C 68.212 33.132,68.459 33.033,68.459 32.913 C 68.459 32.792,68.755 32.693,69.117 32.693 C 69.479 32.693,69.775 32.595,69.775 32.474 C 69.775 32.353,70.022 32.255,70.324 32.255 C 70.625 32.255,70.872 32.156,70.872 32.035 C 70.872 31.914,71.070 31.816,71.311 31.816 C 71.552 31.816,71.750 31.730,71.750 31.625 C 71.750 31.520,72.150 31.381,72.640 31.315 C 73.153 31.246,73.698 31.002,73.927 30.738 C 74.146 30.486,74.464 30.280,74.634 30.280 C 74.805 30.280,75.089 30.070,75.267 29.814 C 75.821 29.014,76.667 28.305,77.068 28.305 C 77.227 28.305,77.500 28.108,77.674 27.866 C 77.848 27.625,78.117 27.427,78.271 27.427 C 78.426 27.427,78.552 27.329,78.552 27.208 C 78.552 27.087,78.749 26.988,78.991 26.988 C 79.232 26.988,79.430 26.890,79.430 26.769 C 79.430 26.648,79.726 26.550,80.088 26.550 C 80.450 26.550,80.746 26.462,80.746 26.355 C 80.746 26.248,81.190 26.094,81.733 26.013 C 82.276 25.931,82.721 25.772,82.721 25.659 C 82.721 25.545,82.968 25.453,83.269 25.453 C 83.571 25.453,83.818 25.354,83.818 25.233 C 83.818 25.112,83.994 25.014,84.208 25.014 C 84.423 25.014,84.741 24.816,84.915 24.575 C 85.089 24.334,85.312 24.136,85.412 24.136 C 85.621 24.136,85.968 23.861,87.004 22.874 C 87.416 22.482,87.847 22.161,87.961 22.161 C 88.076 22.161,88.203 22.087,88.243 21.997 C 88.358 21.737,89.663 21.064,90.050 21.064 C 90.243 21.064,90.400 20.965,90.400 20.845 C 90.400 20.724,90.549 20.625,90.730 20.625 C 90.911 20.625,91.059 20.527,91.059 20.406 C 91.059 20.285,91.355 20.187,91.717 20.187 C 92.079 20.187,92.375 20.088,92.375 19.967 C 92.375 19.846,92.721 19.748,93.143 19.748 C 93.566 19.748,93.911 19.649,93.911 19.528 C 93.911 19.408,94.306 19.309,94.789 19.309 C 95.272 19.309,95.666 19.223,95.666 19.118 C 95.666 19.013,96.259 18.860,96.983 18.778 C 97.707 18.696,98.300 18.535,98.300 18.420 C 98.300 18.306,98.497 18.212,98.738 18.212 C 98.980 18.212,99.177 18.113,99.177 17.992 C 99.177 17.872,99.384 17.773,99.637 17.773 C 100.038 17.773,101.276 17.071,101.591 16.665 C 101.651 16.588,101.972 16.458,102.304 16.376 C 102.636 16.295,102.907 16.132,102.907 16.013 C 102.907 15.895,103.055 15.798,103.236 15.798 C 103.417 15.798,103.566 15.699,103.566 15.579 C 103.566 15.458,103.763 15.359,104.004 15.359 C 104.246 15.359,104.443 15.261,104.443 15.140 C 104.443 15.019,104.641 14.920,104.882 14.920 C 105.123 14.920,105.321 14.822,105.321 14.701 C 105.321 14.580,105.568 14.482,105.869 14.482 C 106.171 14.482,106.418 14.383,106.418 14.262 C 106.418 14.142,106.862 14.043,107.405 14.043 C 107.948 14.043,108.393 13.955,108.393 13.848 C 108.393 13.741,109.676 13.582,111.245 13.494 C 112.814 13.407,114.098 13.248,114.098 13.141 C 114.098 13.033,114.542 12.946,115.085 12.946 C 115.628 12.946,116.072 12.847,116.072 12.726 C 116.072 12.606,116.467 12.507,116.950 12.507 C 117.433 12.507,117.828 12.408,117.828 12.287 C 117.828 12.167,118.075 12.068,118.376 12.068 C 118.678 12.068,118.925 11.969,118.925 11.849 C 118.925 11.728,119.221 11.629,119.583 11.629 C 119.945 11.629,120.241 11.542,120.241 11.435 C 120.241 11.328,120.666 11.176,121.185 11.099 C 121.749 11.014,122.254 10.783,122.441 10.525 C 122.612 10.288,122.878 10.093,123.033 10.093 C 123.187 10.093,123.313 9.995,123.313 9.874 C 123.313 9.753,123.511 9.654,123.752 9.654 C 123.993 9.654,124.191 9.556,124.191 9.435 C 124.191 9.314,124.380 9.216,124.611 9.216 C 124.843 9.216,125.067 9.110,125.110 8.982 C 125.153 8.854,125.605 8.692,126.116 8.624 C 126.626 8.556,127.043 8.414,127.043 8.309 C 127.043 8.204,127.389 8.118,127.811 8.118 C 128.234 8.118,128.579 8.020,128.579 7.899 C 128.579 7.778,129.024 7.680,129.567 7.680 C 130.110 7.680,130.554 7.581,130.554 7.460 C 130.554 7.340,131.097 7.241,131.761 7.241 C 132.425 7.241,132.968 7.142,132.968 7.021 C 132.968 6.889,133.882 6.802,135.272 6.802 C 136.539 6.802,137.575 6.717,137.575 6.614 C 137.575 6.510,138.785 6.355,140.263 6.270 C 141.742 6.184,142.984 6.022,143.024 5.909 C 143.065 5.797,143.484 5.705,143.957 5.705 C 144.430 5.705,144.816 5.606,144.816 5.485 C 144.816 5.365,145.261 5.266,145.804 5.266 C 146.347 5.266,146.791 5.167,146.791 5.047 C 146.791 4.926,147.137 4.827,147.559 4.827 C 147.981 4.827,148.327 4.728,148.327 4.608 C 148.327 4.487,148.623 4.388,148.985 4.388 C 149.347 4.388,149.643 4.297,149.643 4.185 C 149.643 4.073,150.187 3.913,150.850 3.830 L 152.057 3.680 152.057 1.840 L 152.057 0.000 76.029 0.000 L 0.000 0.000 0.000 43.116 M247.943 1.848 L 247.943 3.695 249.369 3.848 C 250.154 3.932,250.795 4.088,250.795 4.195 C 250.795 4.301,251.092 4.388,251.454 4.388 C 251.816 4.388,252.112 4.487,252.112 4.608 C 252.112 4.728,252.556 4.827,253.099 4.827 C 253.642 4.827,254.087 4.926,254.087 5.047 C 254.087 5.167,254.432 5.266,254.855 5.266 C 255.277 5.266,255.623 5.365,255.623 5.485 C 255.623 5.606,256.059 5.705,256.592 5.705 C 257.125 5.705,257.594 5.802,257.634 5.921 C 257.674 6.039,258.867 6.202,260.285 6.283 C 261.703 6.364,262.863 6.514,262.863 6.616 C 262.863 6.718,263.950 6.802,265.277 6.802 C 266.740 6.802,267.691 6.888,267.691 7.021 C 267.691 7.142,268.135 7.241,268.678 7.241 C 269.221 7.241,269.665 7.340,269.665 7.460 C 269.665 7.581,269.962 7.680,270.324 7.680 C 270.686 7.680,270.982 7.778,270.982 7.899 C 270.982 8.020,271.327 8.118,271.750 8.118 C 272.172 8.118,272.518 8.204,272.518 8.309 C 272.518 8.414,272.935 8.556,273.446 8.624 C 273.956 8.692,274.408 8.854,274.451 8.982 C 274.494 9.110,274.718 9.216,274.950 9.216 C 275.181 9.216,275.370 9.314,275.370 9.435 C 275.370 9.556,275.568 9.654,275.809 9.654 C 276.050 9.654,276.248 9.753,276.248 9.874 C 276.248 9.995,276.445 10.093,276.687 10.093 C 276.928 10.093,277.126 10.192,277.126 10.313 C 277.126 10.433,277.274 10.532,277.455 10.532 C 277.636 10.532,277.784 10.619,277.784 10.726 C 277.784 10.833,278.327 10.988,278.991 11.071 C 279.654 11.154,280.197 11.314,280.197 11.426 C 280.197 11.538,280.494 11.629,280.856 11.629 C 281.218 11.629,281.514 11.728,281.514 11.849 C 281.514 11.969,281.761 12.068,282.063 12.068 C 282.364 12.068,282.611 12.167,282.611 12.287 C 282.611 12.408,283.006 12.507,283.489 12.507 C 283.971 12.507,284.366 12.606,284.366 12.726 C 284.366 12.847,284.712 12.946,285.134 12.946 C 285.557 12.946,285.902 13.034,285.902 13.142 C 285.902 13.250,286.791 13.408,287.877 13.494 C 288.963 13.580,289.852 13.739,289.852 13.847 C 289.852 13.955,290.247 14.043,290.730 14.043 C 291.212 14.043,291.607 14.142,291.607 14.262 C 291.607 14.383,291.854 14.482,292.156 14.482 C 292.457 14.482,292.704 14.580,292.704 14.701 C 292.704 14.822,292.902 14.920,293.143 14.920 C 293.385 14.920,293.582 15.019,293.582 15.140 C 293.582 15.261,293.779 15.359,294.021 15.359 C 294.262 15.359,294.460 15.458,294.460 15.579 C 294.460 15.699,294.608 15.798,294.789 15.798 C 294.970 15.798,295.118 15.895,295.118 16.013 C 295.118 16.132,295.389 16.296,295.721 16.378 C 296.053 16.460,296.484 16.708,296.680 16.930 C 296.875 17.152,297.146 17.334,297.283 17.334 C 297.420 17.334,297.532 17.433,297.532 17.553 C 297.532 17.674,297.729 17.773,297.970 17.773 C 298.212 17.773,298.409 17.872,298.409 17.992 C 298.409 18.113,298.656 18.212,298.958 18.212 C 299.259 18.212,299.506 18.303,299.506 18.414 C 299.506 18.525,300.148 18.684,300.933 18.768 C 301.717 18.852,302.359 19.008,302.359 19.115 C 302.359 19.222,302.754 19.309,303.236 19.309 C 303.719 19.309,304.114 19.408,304.114 19.528 C 304.114 19.649,304.558 19.748,305.101 19.748 C 305.645 19.748,306.089 19.846,306.089 19.967 C 306.089 20.088,306.336 20.187,306.637 20.187 C 306.939 20.187,307.186 20.285,307.186 20.406 C 307.186 20.527,307.482 20.625,307.844 20.625 C 308.206 20.625,308.502 20.724,308.502 20.845 C 308.502 20.965,308.703 21.064,308.948 21.064 C 309.193 21.064,309.451 21.212,309.520 21.393 C 309.590 21.574,309.794 21.722,309.974 21.722 C 310.154 21.722,310.721 22.167,311.234 22.710 C 311.747 23.253,312.308 23.697,312.480 23.697 C 312.653 23.697,312.936 23.895,313.110 24.136 C 313.284 24.377,313.652 24.575,313.927 24.575 C 314.202 24.575,314.427 24.674,314.427 24.794 C 314.427 24.915,314.624 25.014,314.866 25.014 C 315.107 25.014,315.304 25.112,315.304 25.233 C 315.304 25.354,315.601 25.453,315.963 25.453 C 316.325 25.453,316.621 25.544,316.621 25.656 C 316.621 25.768,317.164 25.928,317.828 26.011 C 318.491 26.094,319.035 26.249,319.035 26.356 C 319.035 26.462,319.281 26.550,319.583 26.550 C 319.885 26.550,320.132 26.648,320.132 26.769 C 320.132 26.890,320.428 26.988,320.790 26.988 C 321.152 26.988,321.448 27.087,321.448 27.208 C 321.448 27.329,321.574 27.427,321.729 27.427 C 321.883 27.427,322.152 27.625,322.326 27.866 C 322.500 28.108,322.775 28.305,322.938 28.305 C 323.101 28.305,323.372 28.428,323.541 28.579 C 323.709 28.730,323.973 28.964,324.128 29.098 C 324.283 29.233,324.556 29.554,324.733 29.811 C 324.911 30.069,325.195 30.280,325.366 30.280 C 325.536 30.280,325.836 30.464,326.031 30.690 C 326.227 30.916,326.806 31.172,327.319 31.258 C 327.831 31.345,328.250 31.505,328.250 31.616 C 328.250 31.726,328.497 31.816,328.799 31.816 C 329.100 31.816,329.347 31.914,329.347 32.035 C 329.347 32.156,329.643 32.255,330.005 32.255 C 330.368 32.255,330.664 32.353,330.664 32.474 C 330.664 32.595,330.911 32.693,331.212 32.693 C 331.514 32.693,331.761 32.792,331.761 32.913 C 331.761 33.033,332.057 33.132,332.419 33.132 C 332.781 33.132,333.077 33.231,333.077 33.352 C 333.077 33.472,333.278 33.571,333.523 33.571 C 333.768 33.571,334.026 33.719,334.095 33.900 C 334.165 34.081,334.361 34.229,334.532 34.229 C 334.703 34.229,335.675 35.069,336.692 36.094 C 337.816 37.229,338.716 37.959,338.990 37.959 C 339.238 37.959,339.440 38.055,339.440 38.171 C 339.440 38.288,339.934 38.449,340.538 38.529 C 341.141 38.609,341.635 38.760,341.635 38.865 C 341.635 38.970,341.783 39.057,341.964 39.057 C 342.145 39.057,342.293 39.155,342.293 39.276 C 342.293 39.397,342.589 39.495,342.951 39.495 C 343.313 39.495,343.609 39.594,343.609 39.715 C 343.609 39.835,343.758 39.934,343.939 39.934 C 344.120 39.934,344.268 40.033,344.268 40.154 C 344.268 40.274,344.519 40.373,344.825 40.373 C 345.359 40.373,345.732 40.583,346.308 41.208 C 347.956 42.995,349.377 44.323,349.644 44.323 C 349.825 44.323,349.973 44.421,349.973 44.542 C 349.973 44.663,350.170 44.761,350.411 44.761 C 350.653 44.761,350.850 44.860,350.850 44.981 C 350.850 45.101,350.998 45.200,351.179 45.200 C 351.360 45.200,351.509 45.299,351.509 45.420 C 351.509 45.540,351.706 45.639,351.947 45.639 C 352.189 45.639,352.386 45.738,352.386 45.858 C 352.386 45.979,352.577 46.078,352.809 46.078 C 353.042 46.078,353.381 46.226,353.562 46.407 C 353.743 46.588,353.950 46.736,354.023 46.736 C 354.193 46.736,355.677 48.215,355.677 48.384 C 355.677 48.454,355.900 48.740,356.171 49.020 C 356.443 49.299,356.810 49.739,356.988 49.997 C 357.165 50.255,357.486 50.466,357.701 50.466 C 357.915 50.466,358.091 50.563,358.091 50.682 C 358.091 50.800,358.338 50.959,358.640 51.034 C 358.941 51.110,359.188 51.260,359.188 51.368 C 359.188 51.475,359.386 51.563,359.627 51.563 C 359.868 51.563,360.066 51.662,360.066 51.783 C 360.066 51.903,360.263 52.002,360.505 52.002 C 360.746 52.002,360.943 52.101,360.943 52.222 C 360.943 52.342,361.047 52.441,361.173 52.441 C 361.299 52.441,361.649 52.688,361.951 52.990 C 362.253 53.291,362.671 53.538,362.880 53.538 C 363.089 53.538,363.405 53.750,363.583 54.010 C 364.066 54.715,365.753 56.391,365.981 56.391 C 366.090 56.391,366.243 56.588,366.319 56.829 C 366.396 57.071,366.610 57.268,366.795 57.268 C 366.979 57.268,367.407 57.564,367.745 57.926 C 368.084 58.289,368.464 58.585,368.591 58.585 C 368.719 58.585,369.069 58.832,369.371 59.133 C 369.673 59.435,370.051 59.682,370.210 59.682 C 370.370 59.682,370.643 59.879,370.817 60.121 C 370.991 60.362,371.218 60.560,371.320 60.560 C 371.531 60.560,372.134 61.119,372.134 61.314 C 372.134 61.582,374.751 64.070,375.033 64.070 C 375.195 64.070,375.471 64.268,375.645 64.509 C 375.819 64.750,376.087 64.948,376.242 64.948 C 376.396 64.948,376.522 65.047,376.522 65.167 C 376.522 65.288,376.776 65.387,377.086 65.387 C 377.397 65.387,377.788 65.510,377.956 65.661 C 378.621 66.257,378.923 66.484,379.052 66.484 C 379.299 66.484,379.813 67.107,379.813 67.407 C 379.813 67.570,380.011 67.846,380.252 68.020 C 380.494 68.194,380.691 68.417,380.691 68.516 C 380.691 68.943,382.788 71.092,383.204 71.092 C 383.398 71.092,383.614 71.240,383.684 71.421 C 383.753 71.602,383.949 71.750,384.118 71.750 C 384.490 71.750,387.054 74.247,387.054 74.609 C 387.054 74.832,387.339 75.131,388.640 76.273 C 388.794 76.408,389.065 76.729,389.242 76.986 C 389.420 77.244,389.719 77.455,389.907 77.455 C 390.095 77.455,390.391 77.652,390.565 77.894 C 390.739 78.135,391.001 78.332,391.147 78.332 C 391.533 78.332,393.554 80.358,393.733 80.924 C 393.817 81.188,393.978 81.404,394.090 81.404 C 394.203 81.404,394.295 81.564,394.295 81.759 C 394.295 82.158,395.702 83.528,396.311 83.721 C 396.530 83.791,396.709 83.940,396.709 84.052 C 396.709 84.165,397.449 84.257,398.354 84.257 L 400.000 84.257 400.000 42.128 L 400.000 0.000 323.971 0.000 L 247.943 0.000 247.943 1.848  M -25 0 L -5 0 L -5 20 L -25 20 Z M 405 0 L 425 0 L 425 20 L 405 20 Z" stroke="none" fill="#f6f6f6" fill-rule="evenodd" transform="translate(30,0)"></path><path id="path1" d="M152.057 1.840 L 152.057 3.680 150.850 3.830 C 150.187 3.913,149.643 4.073,149.643 4.185 C 149.643 4.297,149.347 4.388,148.985 4.388 C 148.623 4.388,148.327 4.487,148.327 4.608 C 148.327 4.728,147.981 4.827,147.559 4.827 C 147.137 4.827,146.791 4.926,146.791 5.047 C 146.791 5.167,146.347 5.266,145.804 5.266 C 145.261 5.266,144.816 5.365,144.816 5.485 C 144.816 5.606,144.430 5.705,143.957 5.705 C 143.484 5.705,143.065 5.797,143.024 5.909 C 142.984 6.022,141.742 6.184,140.263 6.270 C 138.785 6.355,137.575 6.510,137.575 6.614 C 137.575 6.717,136.539 6.802,135.272 6.802 C 133.882 6.802,132.968 6.889,132.968 7.021 C 132.968 7.142,132.425 7.241,131.761 7.241 C 131.097 7.241,130.554 7.340,130.554 7.460 C 130.554 7.581,130.110 7.680,129.567 7.680 C 129.024 7.680,128.579 7.778,128.579 7.899 C 128.579 8.020,128.234 8.118,127.811 8.118 C 127.389 8.118,127.043 8.204,127.043 8.309 C 127.043 8.414,126.626 8.556,126.116 8.624 C 125.605 8.692,125.153 8.854,125.110 8.982 C 125.067 9.110,124.843 9.216,124.611 9.216 C 124.380 9.216,124.191 9.314,124.191 9.435 C 124.191 9.556,123.993 9.654,123.752 9.654 C 123.511 9.654,123.313 9.753,123.313 9.874 C 123.313 9.995,123.187 10.093,123.033 10.093 C 122.878 10.093,122.612 10.288,122.441 10.525 C 122.254 10.783,121.749 11.014,121.185 11.099 C 120.666 11.176,120.241 11.328,120.241 11.435 C 120.241 11.542,119.945 11.629,119.583 11.629 C 119.221 11.629,118.925 11.728,118.925 11.849 C 118.925 11.969,118.678 12.068,118.376 12.068 C 118.075 12.068,117.828 12.167,117.828 12.287 C 117.828 12.408,117.433 12.507,116.950 12.507 C 116.467 12.507,116.072 12.606,116.072 12.726 C 116.072 12.847,115.628 12.946,115.085 12.946 C 114.542 12.946,114.098 13.033,114.098 13.141 C 114.098 13.248,112.814 13.407,111.245 13.494 C 109.676 13.582,108.393 13.741,108.393 13.848 C 108.393 13.955,107.948 14.043,107.405 14.043 C 106.862 14.043,106.418 14.142,106.418 14.262 C 106.418 14.383,106.171 14.482,105.869 14.482 C 105.568 14.482,105.321 14.580,105.321 14.701 C 105.321 14.822,105.123 14.920,104.882 14.920 C 104.641 14.920,104.443 15.019,104.443 15.140 C 104.443 15.261,104.246 15.359,104.004 15.359 C 103.763 15.359,103.566 15.458,103.566 15.579 C 103.566 15.699,103.417 15.798,103.236 15.798 C 103.055 15.798,102.907 15.895,102.907 16.013 C 102.907 16.132,102.636 16.295,102.304 16.376 C 101.972 16.458,101.651 16.588,101.591 16.665 C 101.276 17.071,100.038 17.773,99.637 17.773 C 99.384 17.773,99.177 17.872,99.177 17.992 C 99.177 18.113,98.980 18.212,98.738 18.212 C 98.497 18.212,98.300 18.306,98.300 18.420 C 98.300 18.535,97.707 18.696,96.983 18.778 C 96.259 18.860,95.666 19.013,95.666 19.118 C 95.666 19.223,95.272 19.309,94.789 19.309 C 94.306 19.309,93.911 19.408,93.911 19.528 C 93.911 19.649,93.566 19.748,93.143 19.748 C 92.721 19.748,92.375 19.846,92.375 19.967 C 92.375 20.088,92.079 20.187,91.717 20.187 C 91.355 20.187,91.059 20.285,91.059 20.406 C 91.059 20.527,90.911 20.625,90.730 20.625 C 90.549 20.625,90.400 20.724,90.400 20.845 C 90.400 20.965,90.243 21.064,90.050 21.064 C 89.663 21.064,88.358 21.737,88.243 21.997 C 88.203 22.087,88.076 22.161,87.961 22.161 C 87.847 22.161,87.416 22.482,87.004 22.874 C 85.968 23.861,85.621 24.136,85.412 24.136 C 85.312 24.136,85.089 24.334,84.915 24.575 C 84.741 24.816,84.423 25.014,84.208 25.014 C 83.994 25.014,83.818 25.112,83.818 25.233 C 83.818 25.354,83.571 25.453,83.269 25.453 C 82.968 25.453,82.721 25.545,82.721 25.659 C 82.721 25.772,82.276 25.931,81.733 26.013 C 81.190 26.094,80.746 26.248,80.746 26.355 C 80.746 26.462,80.450 26.550,80.088 26.550 C 79.726 26.550,79.430 26.648,79.430 26.769 C 79.430 26.890,79.232 26.988,78.991 26.988 C 78.749 26.988,78.552 27.087,78.552 27.208 C 78.552 27.329,78.426 27.427,78.271 27.427 C 78.117 27.427,77.848 27.625,77.674 27.866 C 77.500 28.108,77.225 28.305,77.062 28.305 C 76.899 28.305,76.628 28.428,76.459 28.579 C 76.291 28.730,76.027 28.964,75.872 29.098 C 75.717 29.233,75.444 29.554,75.267 29.811 C 75.089 30.069,74.805 30.280,74.634 30.280 C 74.464 30.280,74.146 30.486,73.927 30.738 C 73.698 31.002,73.153 31.246,72.640 31.315 C 72.150 31.381,71.750 31.520,71.750 31.625 C 71.750 31.730,71.552 31.816,71.311 31.816 C 71.070 31.816,70.872 31.914,70.872 32.035 C 70.872 32.156,70.625 32.255,70.324 32.255 C 70.022 32.255,69.775 32.353,69.775 32.474 C 69.775 32.595,69.479 32.693,69.117 32.693 C 68.755 32.693,68.459 32.792,68.459 32.913 C 68.459 33.033,68.212 33.132,67.910 33.132 C 67.608 33.132,67.361 33.231,67.361 33.352 C 67.361 33.472,67.171 33.571,66.938 33.571 C 66.706 33.571,66.367 33.719,66.186 33.900 C 66.005 34.081,65.795 34.229,65.720 34.229 C 65.645 34.229,64.850 34.970,63.953 35.875 C 63.057 36.780,62.174 37.521,61.990 37.521 C 61.807 37.521,61.657 37.619,61.657 37.740 C 61.657 37.861,61.467 37.959,61.236 37.959 C 61.005 37.959,60.780 38.065,60.738 38.193 C 60.695 38.321,60.242 38.483,59.732 38.551 C 59.222 38.619,58.804 38.761,58.804 38.866 C 58.804 38.971,58.656 39.057,58.475 39.057 C 58.294 39.057,58.146 39.155,58.146 39.276 C 58.146 39.397,57.850 39.495,57.488 39.495 C 57.126 39.495,56.829 39.594,56.829 39.715 C 56.829 39.835,56.632 39.934,56.391 39.934 C 56.149 39.934,55.952 40.033,55.952 40.154 C 55.952 40.274,55.750 40.373,55.504 40.373 C 55.038 40.373,54.724 40.579,53.911 41.420 C 51.612 43.795,51.028 44.323,50.695 44.323 C 50.569 44.323,50.466 44.421,50.466 44.542 C 50.466 44.663,50.269 44.761,50.027 44.761 C 49.786 44.761,49.589 44.860,49.589 44.981 C 49.589 45.101,49.391 45.200,49.150 45.200 C 48.908 45.200,48.711 45.299,48.711 45.420 C 48.711 45.540,48.563 45.639,48.382 45.639 C 48.201 45.639,48.053 45.738,48.053 45.858 C 48.053 45.979,47.862 46.078,47.629 46.078 C 47.397 46.078,47.058 46.226,46.877 46.407 C 46.696 46.588,46.393 46.736,46.203 46.736 C 46.014 46.736,45.858 46.830,45.858 46.946 C 45.858 47.061,45.612 47.402,45.310 47.704 C 45.008 48.005,44.761 48.309,44.761 48.379 C 44.761 48.449,44.416 48.852,43.993 49.274 C 43.571 49.696,43.225 50.138,43.225 50.254 C 43.225 50.371,43.070 50.466,42.881 50.466 C 42.691 50.466,42.388 50.614,42.207 50.795 C 42.026 50.976,41.687 51.125,41.454 51.125 C 41.222 51.125,41.031 51.223,41.031 51.344 C 41.031 51.465,40.883 51.563,40.702 51.563 C 40.521 51.563,40.373 51.662,40.373 51.783 C 40.373 51.903,40.176 52.002,39.934 52.002 C 39.693 52.002,39.495 52.101,39.495 52.222 C 39.495 52.342,39.305 52.441,39.071 52.441 C 38.837 52.441,38.584 52.642,38.505 52.889 C 38.425 53.141,38.106 53.389,37.777 53.455 C 37.455 53.521,36.945 53.869,36.643 54.230 C 35.730 55.320,33.691 57.268,33.462 57.268 C 33.393 57.268,32.991 57.614,32.569 58.036 C 32.147 58.459,31.678 58.804,31.528 58.804 C 31.377 58.804,31.112 59.002,30.938 59.243 C 30.764 59.484,30.491 59.682,30.332 59.682 C 30.172 59.682,29.058 60.669,27.855 61.876 C 26.653 63.083,25.543 64.070,25.390 64.070 C 25.236 64.070,24.968 64.268,24.794 64.509 C 24.620 64.750,24.302 64.948,24.088 64.948 C 23.873 64.948,23.697 65.047,23.697 65.167 C 23.697 65.288,23.549 65.387,23.368 65.387 C 23.187 65.387,23.039 65.485,23.039 65.606 C 23.039 65.727,22.846 65.826,22.610 65.826 C 22.374 65.826,21.955 66.071,21.678 66.372 C 20.422 67.733,20.187 68.013,20.187 68.143 C 20.187 68.220,19.907 68.544,19.565 68.864 C 19.223 69.184,18.876 69.717,18.793 70.049 C 18.709 70.384,18.490 70.653,18.302 70.653 C 18.114 70.653,17.823 70.776,17.655 70.927 C 16.955 71.555,16.685 71.750,16.514 71.750 C 16.415 71.750,16.192 71.947,16.018 72.189 C 15.844 72.430,15.568 72.628,15.405 72.628 C 15.093 72.628,14.482 73.145,14.482 73.409 C 14.482 73.494,14.300 73.723,14.078 73.918 C 13.856 74.113,13.607 74.545,13.525 74.877 C 13.443 75.208,13.279 75.480,13.161 75.480 C 13.043 75.480,12.946 75.581,12.946 75.705 C 12.946 75.829,12.501 76.375,11.958 76.918 C 11.415 77.461,10.971 78.001,10.971 78.119 C 10.971 78.236,10.777 78.332,10.539 78.332 C 10.149 78.332,9.681 78.743,8.173 80.405 C 7.902 80.705,7.680 81.052,7.680 81.177 C 7.680 81.302,7.581 81.404,7.460 81.404 C 7.340 81.404,7.241 81.602,7.241 81.843 C 7.241 82.084,7.142 82.282,7.021 82.282 C 6.901 82.282,6.802 82.434,6.802 82.619 C 6.802 82.804,6.067 83.693,5.170 84.594 L 3.537 86.231 1.769 86.231 L 0.000 86.231 0.000 118.950 L 0.000 151.669 3.675 151.573 C 9.662 151.417,9.471 151.660,9.603 143.993 L 9.694 138.673 12.493 138.673 C 16.314 138.673,16.237 138.746,16.237 135.081 L 16.237 132.309 17.517 132.309 C 22.214 132.309,22.579 131.713,22.592 124.026 L 22.600 119.364 25.363 119.364 C 28.995 119.364,28.946 119.414,28.956 115.688 L 28.963 113.001 31.377 113.001 C 32.719 113.001,33.790 112.910,33.790 112.796 C 33.790 112.684,34.005 112.561,34.268 112.522 C 35.163 112.391,35.512 111.363,35.530 108.810 L 35.546 106.484 37.694 106.353 C 41.276 106.135,41.662 105.740,41.859 102.084 L 41.969 100.055 43.420 100.052 C 46.506 100.047,48.053 99.234,48.053 97.617 C 48.053 97.148,48.151 96.764,48.272 96.764 C 48.399 96.764,48.491 96.069,48.491 95.118 L 48.491 93.472 49.863 93.456 C 54.058 93.407,54.855 92.620,54.855 88.525 L 54.855 87.109 57.169 87.109 C 60.887 87.109,61.218 86.776,61.218 83.036 L 61.218 80.746 63.970 80.746 C 66.601 80.746,66.747 80.722,67.262 80.207 C 67.776 79.693,67.800 79.546,67.800 76.916 L 67.800 74.163 70.719 74.163 C 72.696 74.163,73.722 74.079,73.900 73.900 C 74.079 73.722,74.163 72.696,74.163 70.719 L 74.163 67.800 80.098 67.800 L 86.032 67.800 86.571 67.262 C 87.085 66.747,87.109 66.601,87.109 63.970 L 87.109 61.218 92.649 61.196 C 100.213 61.166,100.011 61.275,100.039 57.213 L 100.055 54.855 105.595 54.854 C 111.463 54.853,112.562 54.663,112.562 53.651 C 112.562 53.468,112.660 53.319,112.781 53.319 C 112.914 53.319,113.001 52.368,113.001 50.905 L 113.001 48.491 121.009 48.491 C 125.414 48.491,129.018 48.406,129.018 48.301 C 129.018 48.196,129.473 48.059,130.028 47.996 C 131.620 47.816,132.309 46.405,132.309 43.324 L 132.309 41.909 141.487 41.909 L 150.664 41.909 151.141 41.401 C 151.577 40.937,151.618 40.663,151.618 38.220 L 151.618 35.546 199.967 35.546 L 248.315 35.546 248.446 38.324 C 248.629 42.181,247.502 41.787,258.564 41.861 L 267.854 41.922 267.953 44.308 C 268.069 47.138,268.346 47.746,269.609 47.939 C 270.062 48.009,270.737 48.162,271.107 48.279 C 271.489 48.399,275.113 48.491,279.477 48.491 L 287.173 48.491 287.251 51.091 C 287.366 54.929,287.209 54.852,294.844 54.853 L 300.165 54.855 300.165 57.254 C 300.165 61.319,299.971 61.215,307.538 61.217 L 312.827 61.218 312.948 63.906 C 313.136 68.066,312.646 67.800,320.142 67.800 L 325.837 67.800 325.837 70.719 C 325.837 74.366,325.636 74.163,329.250 74.163 L 332.137 74.163 332.278 75.512 C 332.356 76.254,332.419 77.531,332.419 78.350 C 332.419 80.500,332.809 80.746,336.210 80.746 L 338.727 80.746 338.824 83.214 C 338.968 86.869,339.234 87.106,343.197 87.108 L 345.308 87.109 345.407 89.468 C 345.556 93.020,345.685 93.146,349.419 93.388 L 351.728 93.537 351.729 94.876 C 351.733 99.164,352.574 100.021,356.804 100.047 C 358.259 100.056,358.303 100.131,358.307 102.640 C 358.313 105.716,358.762 106.123,362.393 106.345 L 364.674 106.485 364.674 108.851 C 364.674 111.385,364.877 112.282,365.493 112.474 C 365.706 112.540,366.052 112.685,366.261 112.797 C 366.471 112.909,367.623 113.001,368.822 113.001 L 371.001 113.001 371.074 115.763 C 371.169 119.384,371.148 119.364,374.761 119.364 L 377.339 119.364 377.497 124.499 C 377.734 132.158,377.607 131.936,381.936 132.234 L 383.949 132.373 384.020 135.183 C 384.111 138.715,383.940 138.544,387.469 138.634 L 390.276 138.706 390.417 144.022 C 390.620 151.695,390.393 151.405,396.325 151.571 L 400.000 151.674 400.000 117.966 L 400.000 84.257 398.354 84.257 C 397.449 84.257,396.709 84.165,396.709 84.052 C 396.709 83.940,396.530 83.791,396.311 83.721 C 395.702 83.528,394.295 82.158,394.295 81.759 C 394.295 81.564,394.203 81.404,394.090 81.404 C 393.978 81.404,393.817 81.188,393.733 80.924 C 393.554 80.358,391.533 78.332,391.147 78.332 C 391.001 78.332,390.739 78.135,390.565 77.894 C 390.391 77.652,390.095 77.455,389.907 77.455 C 389.719 77.455,389.420 77.244,389.242 76.986 C 389.065 76.729,388.807 76.421,388.670 76.301 C 387.422 75.214,387.054 74.829,387.054 74.609 C 387.054 74.247,384.490 71.750,384.118 71.750 C 383.949 71.750,383.753 71.602,383.684 71.421 C 383.614 71.240,383.398 71.092,383.204 71.092 C 382.788 71.092,380.691 68.943,380.691 68.516 C 380.691 68.417,380.494 68.194,380.252 68.020 C 380.011 67.846,379.813 67.570,379.813 67.407 C 379.813 67.103,379.298 66.484,379.046 66.484 C 378.968 66.484,378.767 66.360,378.599 66.210 C 377.805 65.498,377.600 65.387,377.080 65.387 C 376.773 65.387,376.522 65.288,376.522 65.167 C 376.522 65.047,376.396 64.948,376.242 64.948 C 376.087 64.948,375.819 64.750,375.645 64.509 C 375.471 64.268,375.195 64.070,375.033 64.070 C 374.751 64.070,372.134 61.582,372.134 61.314 C 372.134 61.119,371.531 60.560,371.320 60.560 C 371.218 60.560,370.991 60.362,370.817 60.121 C 370.643 59.879,370.370 59.682,370.210 59.682 C 370.051 59.682,369.673 59.435,369.371 59.133 C 369.069 58.832,368.719 58.585,368.591 58.585 C 368.464 58.585,368.084 58.289,367.745 57.926 C 367.407 57.564,366.979 57.268,366.795 57.268 C 366.610 57.268,366.396 57.071,366.319 56.829 C 366.243 56.588,366.090 56.391,365.981 56.391 C 365.753 56.391,364.066 54.715,363.583 54.010 C 363.405 53.750,363.089 53.538,362.880 53.538 C 362.671 53.538,362.253 53.291,361.951 52.990 C 361.649 52.688,361.299 52.441,361.173 52.441 C 361.047 52.441,360.943 52.342,360.943 52.222 C 360.943 52.101,360.746 52.002,360.505 52.002 C 360.263 52.002,360.066 51.903,360.066 51.783 C 360.066 51.662,359.868 51.563,359.627 51.563 C 359.386 51.563,359.188 51.475,359.188 51.368 C 359.188 51.260,358.941 51.110,358.640 51.034 C 358.338 50.959,358.091 50.800,358.091 50.682 C 358.091 50.563,357.915 50.466,357.701 50.466 C 357.486 50.466,357.165 50.255,356.988 49.997 C 356.810 49.739,356.443 49.299,356.171 49.020 C 355.900 48.740,355.677 48.454,355.677 48.384 C 355.677 48.215,354.193 46.736,354.023 46.736 C 353.950 46.736,353.743 46.588,353.562 46.407 C 353.381 46.226,353.042 46.078,352.809 46.078 C 352.577 46.078,352.386 45.979,352.386 45.858 C 352.386 45.738,352.189 45.639,351.947 45.639 C 351.706 45.639,351.509 45.540,351.509 45.420 C 351.509 45.299,351.360 45.200,351.179 45.200 C 350.998 45.200,350.850 45.101,350.850 44.981 C 350.850 44.860,350.653 44.761,350.411 44.761 C 350.170 44.761,349.973 44.663,349.973 44.542 C 349.973 44.421,349.825 44.323,349.644 44.323 C 349.377 44.323,347.956 42.995,346.308 41.208 C 345.732 40.583,345.359 40.373,344.825 40.373 C 344.519 40.373,344.268 40.274,344.268 40.154 C 344.268 40.033,344.120 39.934,343.939 39.934 C 343.758 39.934,343.609 39.835,343.609 39.715 C 343.609 39.594,343.313 39.495,342.951 39.495 C 342.589 39.495,342.293 39.397,342.293 39.276 C 342.293 39.155,342.145 39.057,341.964 39.057 C 341.783 39.057,341.635 38.970,341.635 38.865 C 341.635 38.760,341.141 38.609,340.538 38.529 C 339.934 38.449,339.440 38.288,339.440 38.171 C 339.440 38.055,339.238 37.959,338.990 37.959 C 338.716 37.959,337.816 37.229,336.692 36.094 C 335.675 35.069,334.703 34.229,334.532 34.229 C 334.361 34.229,334.165 34.081,334.095 33.900 C 334.026 33.719,333.768 33.571,333.523 33.571 C 333.278 33.571,333.077 33.472,333.077 33.352 C 333.077 33.231,332.781 33.132,332.419 33.132 C 332.057 33.132,331.761 33.033,331.761 32.913 C 331.761 32.792,331.514 32.693,331.212 32.693 C 330.911 32.693,330.664 32.595,330.664 32.474 C 330.664 32.353,330.368 32.255,330.005 32.255 C 329.643 32.255,329.347 32.156,329.347 32.035 C 329.347 31.914,329.100 31.816,328.799 31.816 C 328.497 31.816,328.250 31.726,328.250 31.616 C 328.250 31.505,327.831 31.345,327.319 31.258 C 326.806 31.172,326.227 30.916,326.031 30.690 C 325.836 30.464,325.536 30.280,325.366 30.280 C 325.195 30.280,324.911 30.070,324.733 29.814 C 324.179 29.014,323.333 28.305,322.932 28.305 C 322.773 28.305,322.500 28.108,322.326 27.866 C 322.152 27.625,321.883 27.427,321.729 27.427 C 321.574 27.427,321.448 27.329,321.448 27.208 C 321.448 27.087,321.152 26.988,320.790 26.988 C 320.428 26.988,320.132 26.890,320.132 26.769 C 320.132 26.648,319.885 26.550,319.583 26.550 C 319.281 26.550,319.035 26.462,319.035 26.356 C 319.035 26.249,318.491 26.094,317.828 26.011 C 317.164 25.928,316.621 25.768,316.621 25.656 C 316.621 25.544,316.325 25.453,315.963 25.453 C 315.601 25.453,315.304 25.354,315.304 25.233 C 315.304 25.112,315.107 25.014,314.866 25.014 C 314.624 25.014,314.427 24.915,314.427 24.794 C 314.427 24.674,314.202 24.575,313.927 24.575 C 313.652 24.575,313.284 24.377,313.110 24.136 C 312.936 23.895,312.653 23.697,312.480 23.697 C 312.308 23.697,311.747 23.253,311.234 22.710 C 310.721 22.167,310.154 21.722,309.974 21.722 C 309.794 21.722,309.590 21.574,309.520 21.393 C 309.451 21.212,309.193 21.064,308.948 21.064 C 308.703 21.064,308.502 20.965,308.502 20.845 C 308.502 20.724,308.206 20.625,307.844 20.625 C 307.482 20.625,307.186 20.527,307.186 20.406 C 307.186 20.285,306.939 20.187,306.637 20.187 C 306.336 20.187,306.089 20.088,306.089 19.967 C 306.089 19.846,305.645 19.748,305.101 19.748 C 304.558 19.748,304.114 19.649,304.114 19.528 C 304.114 19.408,303.719 19.309,303.236 19.309 C 302.754 19.309,302.359 19.222,302.359 19.115 C 302.359 19.008,301.717 18.852,300.933 18.768 C 300.148 18.684,299.506 18.525,299.506 18.414 C 299.506 18.303,299.259 18.212,298.958 18.212 C 298.656 18.212,298.409 18.113,298.409 17.992 C 298.409 17.872,298.212 17.773,297.970 17.773 C 297.729 17.773,297.532 17.674,297.532 17.553 C 297.532 17.433,297.420 17.334,297.283 17.334 C 297.146 17.334,296.875 17.152,296.680 16.930 C 296.484 16.708,296.053 16.460,295.721 16.378 C 295.389 16.296,295.118 16.132,295.118 16.013 C 295.118 15.895,294.970 15.798,294.789 15.798 C 294.608 15.798,294.460 15.699,294.460 15.579 C 294.460 15.458,294.262 15.359,294.021 15.359 C 293.779 15.359,293.582 15.261,293.582 15.140 C 293.582 15.019,293.385 14.920,293.143 14.920 C 292.902 14.920,292.704 14.822,292.704 14.701 C 292.704 14.580,292.457 14.482,292.156 14.482 C 291.854 14.482,291.607 14.383,291.607 14.262 C 291.607 14.142,291.212 14.043,290.730 14.043 C 290.247 14.043,289.852 13.955,289.852 13.847 C 289.852 13.739,288.963 13.580,287.877 13.494 C 286.791 13.408,285.902 13.250,285.902 13.142 C 285.902 13.034,285.557 12.946,285.134 12.946 C 284.712 12.946,284.366 12.847,284.366 12.726 C 284.366 12.606,283.971 12.507,283.489 12.507 C 283.006 12.507,282.611 12.408,282.611 12.287 C 282.611 12.167,282.364 12.068,282.063 12.068 C 281.761 12.068,281.514 11.969,281.514 11.849 C 281.514 11.728,281.218 11.629,280.856 11.629 C 280.494 11.629,280.197 11.538,280.197 11.426 C 280.197 11.314,279.654 11.154,278.991 11.071 C 278.327 10.988,277.784 10.833,277.784 10.726 C 277.784 10.619,277.636 10.532,277.455 10.532 C 277.274 10.532,277.126 10.433,277.126 10.313 C 277.126 10.192,276.928 10.093,276.687 10.093 C 276.445 10.093,276.248 9.995,276.248 9.874 C 276.248 9.753,276.050 9.654,275.809 9.654 C 275.568 9.654,275.370 9.556,275.370 9.435 C 275.370 9.314,275.181 9.216,274.950 9.216 C 274.718 9.216,274.494 9.110,274.451 8.982 C 274.408 8.854,273.956 8.692,273.446 8.624 C 272.935 8.556,272.518 8.414,272.518 8.309 C 272.518 8.204,272.172 8.118,271.750 8.118 C 271.327 8.118,270.982 8.020,270.982 7.899 C 270.982 7.778,270.686 7.680,270.324 7.680 C 269.962 7.680,269.665 7.581,269.665 7.460 C 269.665 7.340,269.221 7.241,268.678 7.241 C 268.135 7.241,267.691 7.142,267.691 7.021 C 267.691 6.888,266.740 6.802,265.277 6.802 C 263.950 6.802,262.863 6.718,262.863 6.616 C 262.863 6.514,261.703 6.364,260.285 6.283 C 258.867 6.202,257.674 6.039,257.634 5.921 C 257.594 5.802,257.125 5.705,256.592 5.705 C 256.059 5.705,255.623 5.606,255.623 5.485 C 255.623 5.365,255.277 5.266,254.855 5.266 C 254.432 5.266,254.087 5.167,254.087 5.047 C 254.087 4.926,253.642 4.827,253.099 4.827 C 252.556 4.827,252.112 4.728,252.112 4.608 C 252.112 4.487,251.816 4.388,251.454 4.388 C 251.092 4.388,250.795 4.301,250.795 4.195 C 250.795 4.088,250.154 3.932,249.369 3.848 L 247.943 3.695 247.943 1.848 L 247.943 0.000 200.000 0.000 L 152.057 0.000 152.057 1.840  M -25 0 L -5 0 L -5 20 L -25 20 Z M 405 0 L 425 0 L 425 20 L 405 20 Z" stroke="none" fill="#000101" fill-rule="evenodd" transform="translate(490,0)"></path></g></svg>